<?xml version="1.0" encoding="utf-8"?>
<!-- Generator: Adobe Illustrator 25.2.0, SVG Export Plug-In . SVG Version: 6.00 Build 0)  -->
<svg version="1.1" id="Layer_1" xmlns="http://www.w3.org/2000/svg" xmlns:xlink="http://www.w3.org/1999/xlink" x="0px" y="0px"
	 viewBox="0 0 1713.46 529.32" style="enable-background:new 0 0 1713.46 529.32;" xml:space="preserve">
<style type="text/css">
	.st0{display:none;}
	.st1{display:inline;fill:#FFFFFF;}
	.st2{display:inline;}
</style>
<g class="st0">
	<path class="st1" d="M56.76,202.9c-2.56,0-4.7-1.81-5.2-4.41c-0.39-2,0.19-4.47,1.77-6.84c-0.85,0.2-1.73,0.31-2.63,0.31
		c-0.38,0-0.75-0.02-1.13-0.06c-7.22-0.78-9.89-7.95-10.32-12.07l-0.08-0.8l19.01-88.14c-5.77-1.37-13.39-3.5-16.3-5.72
		c-3.71-2.84-5.04-10.24-3.94-22l0.43-4.61l4.63,0.07c0.4,0.01,40.35,0.73,80.25,8.23c55.46,10.42,84.52,28.53,86.38,53.83
		c5,45.98-70.19,69.39-85.32,73.62c-0.31,0.09-31.22,8.59-67.34,8.59H56.76z M65.17,183.14l-0.42,0.53
		c-0.1,0.12-0.24,0.29-0.41,0.49c1.36-0.43,3.26-0.98,5.94-1.76c20.62-6.01,83.38-24.31,90.76-48.2c0.84-2.72,0.51-5.23-1.03-7.9
		c-5.73-9.92-27.48-20.12-58.45-27.48L65.17,183.14z"/>
	<path class="st2" d="M42.93,63.65c0,0,157.85,2.54,161.74,57.51c4.91,44.11-75.69,66.67-81.68,68.35
		c-5.99,1.67-34.44,8.41-65.99,8.41c-0.07,0-0.14,0-0.22,0c-0.95,0-0.12-5.38,7.2-8.34c7.31-2.96,92.28-22.9,101.85-53.9
		c8.4-27.19-64.66-41.98-67.19-42.67l-37.78,87.54c0,0-5.17,6.43-10.13,6.43c-0.2,0-0.39-0.01-0.59-0.03
		c-5.14-0.55-5.89-7.62-5.89-7.62l19.89-92.21c0,0-15.8-3.31-19.2-5.9C41.53,78.62,42.93,63.65,42.93,63.65 M33.83,53.5l-0.86,9.22
		c-0.02,0.18-0.4,4.35-0.32,8.92c0.12,6.41,0.95,13.51,6.2,17.52c2.39,1.83,6.89,3.64,13.42,5.42l-17.82,82.63l-0.34,1.57l0.17,1.59
		c0.72,6.77,4.75,13.96,12.2,16.03c-0.08,1.06-0.02,2.08,0.17,3.05c0.97,4.97,5.12,8.45,10.1,8.45l0.23,0
		c36.8,0,68.36-8.69,68.68-8.77c6.05-1.69,27.3-8.06,47.13-19.17c37.55-21.04,43.5-44.05,41.82-59.72
		c-2.11-27.8-32.53-47.41-90.44-58.29c-40.32-7.58-79.45-8.28-81.1-8.31L33.83,53.5L33.83,53.5z M73.6,176.21l30.87-71.54
		c8.51,2.15,16.3,4.52,23.22,7.09c20.85,7.74,26.52,14.48,27.99,17.02c0.97,1.68,0.94,2.79,0.58,3.93c-1.47,4.74-8.1,14.56-36.08,27
		C103.55,167.12,85.43,172.72,73.6,176.21L73.6,176.21z"/>
</g>
<g class="st0">
	<path class="st1" d="M233.49,204.02c-0.62,0-1.57-0.06-2.58-0.56l-0.1-0.05c-1.24-0.66-2.15-1.31-2.86-2.06l-0.83-0.88l-1.54-5.32
		L244.8,93.33c-8.06,0.53-22.14,1.32-34.06,1.32c-17.47,0-23.22-1.48-24.63-6.32c-1.8-6.18,1.54-18.36,5.53-24
		c1.97-2.77,4.26-4.25,6.81-4.39c1.76-0.1,63.29-0.82,96.52-0.82c21.33,0,24.17,0,25.76,1.4c1.69,1.07,3.71,3.27,4.15,7.73
		c0.4,4.09-0.85,13.38-4.58,15.83c-1.2,0.79-1.47,0.97-29.22,3.69c0,0.57-0.07,1.15-0.22,1.72c-3.33,13.14-13.57,44.88-19.37,62.64
		c-3.6,11.01-7.45,22.6-10.55,31.78c-4.99,14.77-5.01,14.78-6.03,15.82c-1.16,1.14-1.67,1.64-11.04,3.07
		C242.53,203.01,235.76,204.02,233.49,204.02z"/>
	<path class="st2" d="M294.97,64.13c13.2,0,22.41,0.11,22.67,0.41c4.47,1.81,1.39,14.39-0.09,15.37
		c-0.49,0.32-41.25,4.28-41.25,4.28s10.68,0.25,9.71,4.08c-5.78,22.82-34.08,107.35-34.67,107.95c-0.65,0.64-15.35,2.8-17.86,2.8
		c-0.18,0-0.29-0.01-0.34-0.03c-0.69-0.37-1.22-0.71-1.56-1.07l-0.87-3.01l20.2-107.02c0,0-22.69,1.77-40.17,1.77
		c-10.57,0-19.23-0.64-19.83-2.71c-1.6-5.49,3.36-21.75,7.81-21.99C200.21,64.87,260.88,64.13,294.97,64.13 M294.97,54.13
		c-32.9,0-94.51,0.71-96.79,0.83c-2.85,0.15-7.01,1.4-10.61,6.49c-4.75,6.7-8.52,20.51-6.26,28.28c2.27,7.82,10.92,8.84,14.61,9.27
		c3.71,0.44,8.56,0.65,14.82,0.65c9.29,0,19.87-0.48,27.95-0.94l-17.8,94.33l-0.44,2.34l0.66,2.29l0.87,3.01l0.67,2.33l1.66,1.76
		c1.09,1.16,2.41,2.13,4.15,3.04l0.1,0.05l0.1,0.05c1.47,0.73,3.04,1.09,4.81,1.09c2.5,0,8.62-0.89,11.13-1.27
		c8.75-1.33,11.25-1.94,13.75-4.4l0.05-0.05l0.05-0.05c1.85-1.88,1.85-1.88,7.21-17.73c3.11-9.2,6.96-20.8,10.57-31.82
		c5.6-17.12,15.31-47.21,19.04-61.32c0.82-0.08,1.64-0.16,2.46-0.25c5.97-0.6,10.76-1.09,14.22-1.46c8.22-0.88,8.89-0.95,11.09-2.4
		c2.88-1.89,4.71-5.05,5.95-10.23c0.49-2.07,1.26-6.16,0.86-10.27c-0.75-7.57-5.05-10.82-7.59-12.1c-2.18-1.13-4.41-1.23-5.94-1.3
		c-1.19-0.06-2.83-0.1-5-0.14C307.51,54.17,302,54.13,294.97,54.13L294.97,54.13z"/>
</g>
<g class="st0">
	<path class="st1" d="M321.39,203.64c-10.48,0-17.71-1.45-22.1-4.45c-3.39-2.31-5.53-6.38-6.37-12.07
		c-2.35-16.04,5.78-44.19,10.83-59.55c6.95-21.11,15.75-41.43,20.47-47.25c10.9-13.46,20.55-20.56,31.28-23.01
		c3.7-0.85,9.15-1.86,14.07-1.86c11.27,0,13.77,5.5,14.27,8.78c0.54,3.6-2.18,9.33-20.8,43.8c-10.69,19.8-28.08,51.99-30.59,61.42
		c1.01,0.17,2.66,0.34,5.23,0.34c13.85,0,39.76-4.68,55.24-7.47c9.48-1.71,13.4-2.41,15.18-2.41c1.41,0,2.62,0.42,3.59,1.26
		c3.34,2.87,5.64,10.73,0.28,19.23C404.71,191.92,348.61,203.64,321.39,203.64z"/>
	<path class="st2" d="M369.58,60.45c5.03,0,8.82,1.2,9.32,4.52c0.88,5.89-54.06,97.35-51.67,106.95c0.51,2.06,4.5,2.87,10.46,2.87
		c20.89,0,65.99-9.88,70.42-9.88c0.18,0,0.29,0.02,0.33,0.05c1.3,1.12,3.48,6.14-0.69,12.77c-5.02,7.96-56.08,20.91-86.36,20.91
		c-8.64,0-15.58-1.05-19.28-3.58c-16.67-11.37,16.48-99.84,26-111.59c9.52-11.75,18.36-18.96,28.51-21.29
		C361.05,61.17,365.68,60.45,369.58,60.45 M369.58,50.45c-4.33,0-9.44,0.67-15.19,1.99c-11.89,2.72-22.4,10.35-34.05,24.74
		c-6.08,7.51-15.32,30.58-21.33,48.83c-6.34,19.26-13.41,45.63-11.03,61.84c1.05,7.14,3.91,12.34,8.5,15.48
		c5.32,3.63,13.23,5.32,24.91,5.32c14.74,0,35.32-2.9,55.04-7.76c33.79-8.32,38.14-15.22,39.78-17.82
		c6.54-10.38,4.24-20.98-1.25-25.69c-1.31-1.12-3.56-2.46-6.85-2.46c-2.19,0-5.6,0.6-16.05,2.48c-14.62,2.64-38.65,6.98-52.46,7.37
		c1.47-3.46,3.81-8.53,7.53-15.93c5.89-11.69,13.23-25.28,20.32-38.42c20.14-37.29,22.13-41.67,21.35-46.92
		C388.33,60.43,385.59,50.45,369.58,50.45L369.58,50.45z"/>
</g>
<g class="st0">
	<path class="st1" d="M569.78,203.11c-5.59,0-13.16-1.14-22.51-3.4c-21.17-5.1-79.96-27.17-96.44-33.41l-13.89,27.88l-2.28,0.54
		c-0.29,0.07-1.85,0.41-4.17,0.41c-2.81,0-5.58-0.49-8.22-1.45c-6.01-2.19-10.72-6.93-10.72-10.78c0-0.87,0-1.36,7.97-28.94
		c-6.88-4.37-7.89-5.26-8.29-5.65c-3.89-3.72-4.01-8.8-4.01-9.37v-2.25l1.69-1.49c1.75-1.55,5.53-2.97,15.27-6.19
		c0.51-0.17,1.06-0.35,1.58-0.53c0.25-17.78,0.64-46.55,0.65-47.39c0-8.47,4.9-14.33,14.99-17.92l0.16-0.06l0.16-0.05
		c16.62-4.67,38.16-7.35,59.11-7.35c52.73,0,84.2,15.56,84.2,41.62c0,19.41-20.2,34.19-60.02,43.92
		c-14.4,3.52-28.66,5.72-39.34,7.04c21.56,9.16,60.51,24.25,78.07,31.06c17.89,6.93,17.89,6.93,18.78,7.82l0.46,0.46l0.33,0.56
		c1.29,2.22,2.11,5.99,0.18,9.35C580.33,203.11,572.39,203.11,569.78,203.11z M469.77,86.61c8.1,2.6,9.53,4.51,10.32,6.73
		c0.67,1.92,1.75,4.99-11.08,27.96c7.86-1.59,19.34-4.06,31.18-7.06c31.65-8.01,39.28-13.02,41.04-14.64
		c-2.93-5.62-25.94-12.56-46.17-13.67c-2.81-0.15-5.67-0.23-8.5-0.23C480.32,85.7,474.67,86.07,469.77,86.61z"/>
	<path class="st2" d="M500.86,60.72c40.02,0,79.2,9.97,79.2,36.62c0,40.52-112.42,47.74-112.42,47.74
		c4.84,5.07,110.8,45.06,111.38,45.64c0,0,4.3,7.4-9.24,7.4c-4.68,0-11.48-0.88-21.34-3.26c-24.17-5.83-100.06-34.83-100.06-34.83
		l-14.87,29.84c0,0-1.16,0.28-3.01,0.28c-1.71,0-4.01-0.24-6.5-1.15c-5.2-1.9-7.43-5.39-7.43-6.09c0-0.69,8.82-31.16,8.82-31.16
		s-9.78-6.14-10.65-7.01c-2.5-2.35-2.5-5.79-2.5-5.79c1.95-1.72,17.23-6.23,18.5-6.93c0,0,0.69-50.21,0.69-50.92
		c0-5.13,2.34-9.91,11.67-13.22C458.97,63.42,480.03,60.72,500.86,60.72 M459.28,128.21c1.5,0,89.03-16.67,87.17-28.55
		c-1.81-11.57-35.2-17.85-51.12-18.72c-3.02-0.17-5.95-0.24-8.77-0.24c-23.32,0-39.2,5.06-39.2,5.47c0,0.12,26.77,5.25,28.02,8.82
		C476.62,98.57,459.28,128.21,459.28,128.21 M500.86,50.72c-21.39,0-43.42,2.75-60.46,7.53l-0.33,0.09l-0.32,0.11
		c-15.14,5.38-18.32,15.28-18.32,22.64c-0.01,0.95-0.35,26.05-0.6,43.75c-9.59,3.2-12.89,4.55-15.21,6.6l-3.38,2.99v4.51
		c0,1.28,0.27,7.89,5.5,12.93c0.58,0.58,1.42,1.33,5.96,4.28c-7.13,24.69-7.13,25.07-7.13,26.75c0,6.81,7.05,12.94,14.01,15.48
		c3.19,1.16,6.53,1.75,9.93,1.75c2.8,0,4.78-0.42,5.32-0.55l4.56-1.08l2.09-4.19l10.83-21.74c20.66,7.79,72.91,27.2,92.8,31.99
		c9.87,2.38,17.61,3.54,23.68,3.54c8.92,0,15-2.71,18.08-8.07c2.99-5.2,1.77-10.98-0.19-14.35l-0.65-1.12l-0.92-0.92
		c-1.58-1.58-2.21-1.82-8.21-4.17c-2.99-1.17-7.22-2.81-12.3-4.78c-13.51-5.23-40.04-15.51-61.22-24.09
		c6.94-1.19,14.38-2.66,21.86-4.49c42.36-10.35,63.84-26.76,63.84-48.78c0-11.6-5.37-27.55-30.93-37.61
		C540.21,52.28,517,50.72,500.86,50.72L500.86,50.72z M484.42,90.72c0.7-0.01,1.41-0.01,2.13-0.01c2.74,0,5.5,0.08,8.23,0.22
		c5.81,0.32,16.04,1.6,25.75,4.17c5.19,1.37,8.91,2.77,11.48,3.98c-5.45,2.37-15.71,5.99-34.74,10.74
		c-6.62,1.65-13.1,3.14-18.84,4.39c7.17-13.86,7.91-18.16,6.38-22.52C484.68,91.35,484.56,91.03,484.42,90.72L484.42,90.72z"/>
</g>
<g>
	<g>
		<path d="M69.91,443.41c-15.56-1.68-17.83-23.08-17.83-23.08l60.22-279.16c0,0-47.84-10.02-58.12-17.87s-6.05-53.18-6.05-53.18
			s477.91,7.68,489.68,174.11c14.87,133.53-229.15,201.85-247.31,206.93c-18.19,5.07-104.67,25.54-200.46,25.45
			c-2.89,0-0.35-16.28,21.79-25.24s279.38-69.35,308.36-163.18C445.62,205.88,224.44,161.1,216.75,159L102.38,424.03
			C102.38,424.03,85.47,445.09,69.91,443.41z"/>
	</g>
	<g>
		<path d="M677.85,143.53c0,0-176.82,13.76-181.66-2.87c-4.84-16.63,10.18-65.86,23.64-66.59c6.27-0.34,357.23-4.5,360.05-1.23
			c13.52,5.49,4.2,43.58-0.27,46.52c-1.49,0.98-124.89,12.97-124.89,12.97s32.33,0.77,29.4,12.35
			c-17.49,69.1-103.17,325.02-104.97,326.84c-2.1,2.07-53,9.42-55.1,8.37c-2.1-1.11-3.69-2.16-4.71-3.24l-2.64-9.12L677.85,143.53z"
			/>
	</g>
	<g>
		<path d="M1152.66,415.53c-19.53,30.98-269.36,86.89-319.82,52.47s49.9-302.28,78.72-337.85c28.82-35.58,55.58-57.41,86.32-64.45
			c30.75-7.04,64.78-9.38,67.44,8.44S901.66,368.88,908.88,397.95s241.94-24.46,245.88-21.07S1165.3,395.48,1152.66,415.53z"/>
	</g>
	<g>
		<path d="M1230.7,452.26c0,0-13.08,3.1-28.81-2.64c-15.73-5.74-22.51-16.33-22.51-18.43c0-2.1,26.71-94.35,26.71-94.35
			s-29.62-18.58-32.23-21.22c-7.56-7.11-7.56-17.53-7.56-17.53c5.91-5.22,52.16-18.88,56-20.98c0,0,2.1-152.03,2.1-154.16
			c0-15.54,7.09-30,35.32-40.03c140.31-39.41,414.67-33.5,414.67,89.19s-340.38,144.53-340.38,144.53
			c14.64,15.36,335.46,136.42,337.23,138.19c0,0,23.58,40.53-92.57,12.53c-73.18-17.64-302.95-105.45-302.95-105.45L1230.7,452.26z
			 M1308.69,265.6c4.53,0,269.54-50.46,263.9-86.43c-5.49-35.02-106.57-54.04-154.78-56.68c-84.83-4.64-145.26,14.46-145.26,15.84
			c0,0.36,81.03,15.88,84.84,26.71S1308.69,265.6,1308.69,265.6z"/>
	</g>
	<g>
		<path d="M69.91,443.41c-15.56-1.68-17.83-23.08-17.83-23.08l60.22-279.16c0,0-47.84-10.02-58.12-17.87s-6.05-53.18-6.05-53.18
			s477.91,7.68,489.68,174.11c14.87,133.53-229.15,201.85-247.31,206.93c-18.19,5.07-104.67,25.54-200.46,25.45
			c-2.89,0-0.35-16.28,21.79-25.24s279.38-69.35,308.36-163.18C445.62,205.88,224.44,161.1,216.75,159L102.38,424.03
			C102.38,424.03,85.47,445.09,69.91,443.41z"/>
	</g>
	<g>
		<path d="M677.85,143.53c0,0-176.82,13.76-181.66-2.87c-4.84-16.63,10.18-65.86,23.64-66.59c6.27-0.34,357.23-4.5,360.05-1.23
			c13.52,5.49,4.2,43.58-0.27,46.52c-1.49,0.98-124.89,12.97-124.89,12.97s32.33,0.77,29.4,12.35
			c-17.49,69.1-103.17,325.02-104.97,326.84c-2.1,2.07-53,9.42-55.1,8.37c-2.1-1.11-3.69-2.16-4.71-3.24l-2.64-9.12L677.85,143.53z"
			/>
	</g>
	<g>
		<path d="M1152.66,415.53c-19.53,30.98-269.36,86.89-319.82,52.47s49.9-302.28,78.72-337.85c28.82-35.58,55.58-57.41,86.32-64.45
			c30.75-7.04,64.78-9.38,67.44,8.44S901.66,368.88,908.88,397.95s241.94-24.46,245.88-21.07S1165.3,395.48,1152.66,415.53z"/>
	</g>
	<g>
		<path d="M1230.7,452.26c0,0-13.08,3.1-28.81-2.64c-15.73-5.74-22.51-16.33-22.51-18.43c0-2.1,26.71-94.35,26.71-94.35
			s-29.62-18.58-32.23-21.22c-7.56-7.11-7.56-17.53-7.56-17.53c5.91-5.22,52.16-18.88,56-20.98c0,0,2.1-152.03,2.1-154.16
			c0-15.54,7.09-30,35.32-40.03c140.31-39.41,414.67-33.5,414.67,89.19s-340.38,144.53-340.38,144.53
			c14.64,15.36,335.46,136.42,337.23,138.19c0,0,23.58,40.53-92.57,12.53c-73.18-17.64-302.95-105.45-302.95-105.45L1230.7,452.26z
			 M1308.69,265.6c4.53,0,269.54-50.46,263.9-86.43c-5.49-35.02-106.57-54.04-154.78-56.68c-84.83-4.64-145.26,14.46-145.26,15.84
			c0,0.36,81.03,15.88,84.84,26.71S1308.69,265.6,1308.69,265.6z"/>
	</g>
</g>
<path d="M860.83,406.27"/>
<g>
	<g>
		<path d="M1627.9,414.31c-4.69-2.51-8.25-6.16-10.7-10.93c-2.45-4.77-3.67-10.52-3.67-17.24c0-6.72,1.22-12.46,3.67-17.24
			c2.45-4.77,6-8.41,10.67-10.91c4.67-2.5,10.31-3.75,16.93-3.75s12.26,1.25,16.93,3.75c4.67,2.5,8.23,6.13,10.67,10.91
			c2.45,4.77,3.67,10.52,3.67,17.24c0,6.72-1.22,12.47-3.67,17.24c-2.45,4.77-6.01,8.42-10.7,10.93c-4.69,2.52-10.32,3.77-16.9,3.77
			C1638.22,418.09,1632.59,416.83,1627.9,414.31z M1657.05,406.82c3.41-1.86,6.02-4.55,7.83-8.06c1.81-3.51,2.71-7.72,2.71-12.61
			c0-5.03-0.9-9.34-2.69-12.92c-1.79-3.58-4.39-6.31-7.81-8.19c-3.41-1.88-7.51-2.82-12.3-2.82c-4.79,0-8.89,0.94-12.3,2.82
			c-3.41,1.88-6.01,4.61-7.81,8.19c-1.79,3.58-2.69,7.89-2.69,12.92c0,4.93,0.9,9.15,2.69,12.66c1.79,3.51,4.39,6.19,7.81,8.04
			c3.41,1.84,7.51,2.76,12.3,2.76C1649.56,409.61,1653.64,408.68,1657.05,406.82z M1632.4,369.91h7.81v32.2h-7.81V369.91z
			 M1637.26,385.47h9.77c1.17,0,2.1-0.37,2.79-1.11c0.69-0.74,1.03-1.8,1.03-3.18c0-1.41-0.34-2.48-1.03-3.2
			c-0.69-0.72-1.62-1.09-2.79-1.09h-9.77v-6.98h9.56c3.82,0,6.75,1.03,8.79,3.08c2.03,2.05,3.05,4.78,3.05,8.19
			c0,3.38-1.03,6.1-3.1,8.17c-2.07,2.07-4.98,3.1-8.73,3.1h-9.56V385.47z M1644.7,389.5l6.56-3.41l8.22,15.97h-8.68L1644.7,389.5z"
			/>
	</g>
</g>
</svg>
