<?xml version="1.0" encoding="utf-8"?>
<!-- Generator: Adobe Illustrator 25.4.1, SVG Export Plug-In . SVG Version: 6.00 Build 0)  -->
<svg version="1.1" id="Layer_1" xmlns="http://www.w3.org/2000/svg" xmlns:xlink="http://www.w3.org/1999/xlink" x="0px" y="0px"
	 viewBox="0 0 1227.6 315.7" style="enable-background:new 0 0 1227.6 315.7;" xml:space="preserve">
<style type="text/css">
	.st0{display:none;}
	.st1{display:inline;fill:#FFFFFF;}
	.st2{display:inline;}
	.st3{display:inline;fill:#CE181E;}
	.st4{fill:#FFFFFF;}
</style>
<g class="st0">
	<path class="st1" d="M-502.8-32.4c-2.6,0-4.7-1.8-5.2-4.4c-0.4-2,0.2-4.5,1.8-6.8c-0.9,0.2-1.7,0.3-2.6,0.3c-0.4,0-0.8,0-1.1-0.1
		c-7.2-0.8-9.9-8-10.3-12.1l-0.1-0.8l19-88.1c-5.8-1.4-13.4-3.5-16.3-5.7c-3.7-2.8-5-10.2-3.9-22l0.4-4.6l4.6,0.1
		c0.4,0,40.3,0.7,80.3,8.2c55.5,10.4,84.5,28.5,86.4,53.8c5,46-70.2,69.4-85.3,73.6c-0.3,0.1-31.2,8.6-67.3,8.6H-502.8z
		 M-494.4-52.2l-0.4,0.5c-0.1,0.1-0.2,0.3-0.4,0.5c1.4-0.4,3.3-1,5.9-1.8c20.6-6,83.4-24.3,90.8-48.2c0.8-2.7,0.5-5.2-1-7.9
		c-5.7-9.9-27.5-20.1-58.5-27.5L-494.4-52.2z"/>
	<path class="st2" d="M-516.6-171.7c0,0,157.9,2.5,161.7,57.5c4.9,44.1-75.7,66.7-81.7,68.3c-6,1.7-34.4,8.4-66,8.4
		c-0.1,0-0.1,0-0.2,0c-1,0-0.1-5.4,7.2-8.3c7.3-3,92.3-22.9,101.8-53.9c8.4-27.2-64.7-42-67.2-42.7l-37.8,87.5c0,0-5.2,6.4-10.1,6.4
		c-0.2,0-0.4,0-0.6,0c-5.1-0.6-5.9-7.6-5.9-7.6l19.9-92.2c0,0-15.8-3.3-19.2-5.9C-518-156.7-516.6-171.7-516.6-171.7 M-525.7-181.8
		l-0.9,9.2c0,0.2-0.4,4.4-0.3,8.9c0.1,6.4,0.9,13.5,6.2,17.5c2.4,1.8,6.9,3.6,13.4,5.4l-17.8,82.6l-0.3,1.6l0.2,1.6
		c0.7,6.8,4.7,14,12.2,16c-0.1,1.1,0,2.1,0.2,3.1c1,5,5.1,8.4,10.1,8.5l0.2,0c36.8,0,68.4-8.7,68.7-8.8c6-1.7,27.3-8.1,47.1-19.2
		c37.6-21,43.5-44,41.8-59.7c-2.1-27.8-32.5-47.4-90.4-58.3c-40.3-7.6-79.5-8.3-81.1-8.3L-525.7-181.8L-525.7-181.8z M-485.9-59.1
		l30.9-71.5c8.5,2.1,16.3,4.5,23.2,7.1c20.9,7.7,26.5,14.5,28,17c1,1.7,0.9,2.8,0.6,3.9c-1.5,4.7-8.1,14.6-36.1,27
		C-456-68.2-474.1-62.6-485.9-59.1L-485.9-59.1z"/>
</g>
<g class="st0">
	<path class="st1" d="M-326-31.3c-0.6,0-1.6-0.1-2.6-0.6l-0.1-0.1c-1.2-0.7-2.1-1.3-2.9-2.1l-0.8-0.9l-1.5-5.3l19.2-101.8
		c-8.1,0.5-22.1,1.3-34.1,1.3c-17.5,0-23.2-1.5-24.6-6.3c-1.8-6.2,1.5-18.4,5.5-24c2-2.8,4.3-4.2,6.8-4.4c1.8-0.1,63.3-0.8,96.5-0.8
		c21.3,0,24.2,0,25.8,1.4c1.7,1.1,3.7,3.3,4.2,7.7c0.4,4.1-0.8,13.4-4.6,15.8c-1.2,0.8-1.5,1-29.2,3.7c0,0.6-0.1,1.1-0.2,1.7
		c-3.3,13.1-13.6,44.9-19.4,62.6c-3.6,11-7.4,22.6-10.6,31.8c-5,14.8-5,14.8-6,15.8c-1.2,1.1-1.7,1.6-11,3.1
		C-317-32.3-323.8-31.3-326-31.3z"/>
	<path class="st2" d="M-264.6-171.2c13.2,0,22.4,0.1,22.7,0.4c4.5,1.8,1.4,14.4-0.1,15.4c-0.5,0.3-41.2,4.3-41.2,4.3
		s10.7,0.3,9.7,4.1c-5.8,22.8-34.1,107.4-34.7,108c-0.6,0.6-15.4,2.8-17.9,2.8c-0.2,0-0.3,0-0.3,0c-0.7-0.4-1.2-0.7-1.6-1.1l-0.9-3
		l20.2-107c0,0-22.7,1.8-40.2,1.8c-10.6,0-19.2-0.6-19.8-2.7c-1.6-5.5,3.4-21.8,7.8-22C-359.3-170.4-298.6-171.2-264.6-171.2
		 M-264.6-181.2c-32.9,0-94.5,0.7-96.8,0.8c-2.9,0.2-7,1.4-10.6,6.5c-4.7,6.7-8.5,20.5-6.3,28.3c2.3,7.8,10.9,8.8,14.6,9.3
		c3.7,0.4,8.6,0.6,14.8,0.6c9.3,0,19.9-0.5,28-0.9l-17.8,94.3l-0.4,2.3l0.7,2.3l0.9,3l0.7,2.3l1.7,1.8c1.1,1.2,2.4,2.1,4.2,3
		l0.1,0.1l0.1,0.1c1.5,0.7,3,1.1,4.8,1.1c2.5,0,8.6-0.9,11.1-1.3c8.8-1.3,11.2-1.9,13.7-4.4l0.1,0l0-0.1c1.9-1.9,1.9-1.9,7.2-17.7
		c3.1-9.2,7-20.8,10.6-31.8c5.6-17.1,15.3-47.2,19-61.3c0.8-0.1,1.6-0.2,2.5-0.2c6-0.6,10.8-1.1,14.2-1.5c8.2-0.9,8.9-1,11.1-2.4
		c2.9-1.9,4.7-5.1,5.9-10.2c0.5-2.1,1.3-6.2,0.9-10.3c-0.7-7.6-5.1-10.8-7.6-12.1c-2.2-1.1-4.4-1.2-5.9-1.3c-1.2-0.1-2.8-0.1-5-0.1
		C-252-181.1-257.5-181.2-264.6-181.2L-264.6-181.2z"/>
</g>
<g class="st0">
	<path class="st1" d="M-238.1-31.7c-10.5,0-17.7-1.5-22.1-4.4c-3.4-2.3-5.5-6.4-6.4-12.1c-2.4-16,5.8-44.2,10.8-59.5
		c7-21.1,15.8-41.4,20.5-47.2c10.9-13.5,20.6-20.6,31.3-23c3.7-0.8,9.2-1.9,14.1-1.9c11.3,0,13.8,5.5,14.3,8.8
		c0.5,3.6-2.2,9.3-20.8,43.8c-10.7,19.8-28.1,52-30.6,61.4c1,0.2,2.7,0.3,5.2,0.3c13.9,0,39.8-4.7,55.2-7.5
		c9.5-1.7,13.4-2.4,15.2-2.4c1.4,0,2.6,0.4,3.6,1.3c3.3,2.9,5.6,10.7,0.3,19.2C-154.8-43.4-210.9-31.7-238.1-31.7z"/>
	<path class="st2" d="M-189.9-174.8c5,0,8.8,1.2,9.3,4.5c0.9,5.9-54.1,97.4-51.7,107c0.5,2.1,4.5,2.9,10.5,2.9
		c20.9,0,66-9.9,70.4-9.9c0.2,0,0.3,0,0.3,0.1c1.3,1.1,3.5,6.1-0.7,12.8c-5,8-56.1,20.9-86.4,20.9c-8.6,0-15.6-1.1-19.3-3.6
		c-16.7-11.4,16.5-99.8,26-111.6c9.5-11.8,18.4-19,28.5-21.3C-198.5-174.1-193.8-174.8-189.9-174.8 M-189.9-184.8
		c-4.3,0-9.4,0.7-15.2,2c-11.9,2.7-22.4,10.4-34.1,24.7c-6.1,7.5-15.3,30.6-21.3,48.8c-6.3,19.3-13.4,45.6-11,61.8
		c1,7.1,3.9,12.3,8.5,15.5c5.3,3.6,13.2,5.3,24.9,5.3c14.7,0,35.3-2.9,55-7.8c33.8-8.3,38.1-15.2,39.8-17.8
		c6.5-10.4,4.2-21-1.3-25.7c-1.3-1.1-3.6-2.5-6.8-2.5c-2.2,0-5.6,0.6-16.1,2.5c-14.6,2.6-38.6,7-52.5,7.4c1.5-3.5,3.8-8.5,7.5-15.9
		c5.9-11.7,13.2-25.3,20.3-38.4c20.1-37.3,22.1-41.7,21.3-46.9C-171.2-174.9-173.9-184.8-189.9-184.8L-189.9-184.8z"/>
</g>
<g class="st0">
	<path class="st1" d="M10.3-32.2c-5.6,0-13.2-1.1-22.5-3.4c-21.2-5.1-80-27.2-96.4-33.4l-13.9,27.9l-2.3,0.5
		c-0.3,0.1-1.9,0.4-4.2,0.4c-2.8,0-5.6-0.5-8.2-1.5c-6-2.2-10.7-6.9-10.7-10.8c0-0.9,0-1.4,8-28.9c-6.9-4.4-7.9-5.3-8.3-5.7
		c-3.9-3.7-4-8.8-4-9.4v-2.3l1.7-1.5c1.8-1.5,5.5-3,15.3-6.2c0.5-0.2,1.1-0.3,1.6-0.5c0.2-17.8,0.6-46.5,0.6-47.4
		c0-8.5,4.9-14.3,15-17.9l0.2-0.1l0.2,0c16.6-4.7,38.2-7.3,59.1-7.3c52.7,0,84.2,15.6,84.2,41.6c0,19.4-20.2,34.2-60,43.9
		c-14.4,3.5-28.7,5.7-39.3,7c21.6,9.2,60.5,24.3,78.1,31.1C22.1-49,22.1-49,23-48.1l0.5,0.5l0.3,0.6c1.3,2.2,2.1,6,0.2,9.3
		C20.8-32.2,12.9-32.2,10.3-32.2z M-89.8-148.7c8.1,2.6,9.5,4.5,10.3,6.7c0.7,1.9,1.8,5-11.1,28c7.9-1.6,19.3-4.1,31.2-7.1
		c31.6-8,39.3-13,41-14.6c-2.9-5.6-25.9-12.6-46.2-13.7c-2.8-0.2-5.7-0.2-8.5-0.2C-79.2-149.6-84.9-149.2-89.8-148.7z"/>
	<path class="st2" d="M-58.7-174.6c40,0,79.2,10,79.2,36.6c0,40.5-112.4,47.7-112.4,47.7C-87-85.1,18.9-45.2,19.5-44.6
		c0,0,4.3,7.4-9.2,7.4c-4.7,0-11.5-0.9-21.3-3.3c-24.2-5.8-100.1-34.8-100.1-34.8L-126-45.4c0,0-1.2,0.3-3,0.3c-1.7,0-4-0.2-6.5-1.1
		c-5.2-1.9-7.4-5.4-7.4-6.1c0-0.7,8.8-31.2,8.8-31.2s-9.8-6.1-10.6-7c-2.5-2.3-2.5-5.8-2.5-5.8c2-1.7,17.2-6.2,18.5-6.9
		c0,0,0.7-50.2,0.7-50.9c0-5.1,2.3-9.9,11.7-13.2C-100.6-171.9-79.5-174.6-58.7-174.6 M-100.2-107.1c1.5,0,89-16.7,87.2-28.5
		c-1.8-11.6-35.2-17.9-51.1-18.7c-3-0.2-6-0.2-8.8-0.2c-23.3,0-39.2,5.1-39.2,5.5c0,0.1,26.8,5.2,28,8.8
		C-82.9-136.7-100.2-107.1-100.2-107.1 M-58.7-184.6c-21.4,0-43.4,2.7-60.5,7.5l-0.3,0.1l-0.3,0.1c-15.1,5.4-18.3,15.3-18.3,22.6
		c0,0.9-0.4,26.1-0.6,43.8c-9.6,3.2-12.9,4.5-15.2,6.6l-3.4,3v4.5c0,1.3,0.3,7.9,5.5,12.9c0.6,0.6,1.4,1.3,6,4.3
		c-7.1,24.7-7.1,25.1-7.1,26.7c0,6.8,7,12.9,14,15.5c3.2,1.2,6.5,1.8,9.9,1.8c2.8,0,4.8-0.4,5.3-0.5l4.6-1.1l2.1-4.2l10.8-21.7
		c20.7,7.8,72.9,27.2,92.8,32c9.9,2.4,17.6,3.5,23.7,3.5c8.9,0,15-2.7,18.1-8.1c3-5.2,1.8-11-0.2-14.4l-0.7-1.1l-0.9-0.9
		c-1.6-1.6-2.2-1.8-8.2-4.2c-3-1.2-7.2-2.8-12.3-4.8c-13.5-5.2-40-15.5-61.2-24.1c6.9-1.2,14.4-2.7,21.9-4.5
		C9.1-99.5,30.5-115.9,30.5-138c0-11.6-5.4-27.5-30.9-37.6C-19.3-183-42.5-184.6-58.7-184.6L-58.7-184.6z M-75.1-144.6
		c0.7,0,1.4,0,2.1,0c2.7,0,5.5,0.1,8.2,0.2c5.8,0.3,16,1.6,25.7,4.2c5.2,1.4,8.9,2.8,11.5,4c-5.5,2.4-15.7,6-34.7,10.7
		c-6.6,1.7-13.1,3.1-18.8,4.4c7.2-13.9,7.9-18.2,6.4-22.5C-74.8-143.9-75-144.3-75.1-144.6L-75.1-144.6z"/>
</g>
<g class="st0">
	<path class="st3" d="M-457.6,413c-5.9,0-10.8-4.3-12-10.4c-2.2-11.3,8.4-33.7,38.1-45.8c5-2,16.3-5.3,33.4-10.3
		c48-14,137.4-40.1,219.2-76.5c45.2-20.1,82-40.7,109.6-61.3c31.8-23.8,51.6-47.7,58.8-71.1c4.3-14.1,2.6-27.5-5.2-41.1
		C-42,51-136.6,6.6-275.5-25.5L-431,334.9l-0.9,1.2c-2.6,3.2-25.7,31.1-51.1,31.1c-1.2,0-2.5-0.1-3.7-0.2c-24-2.6-33-27.5-34.5-41.8
		l-0.2-1.8l81.5-378c-21-4.7-61.6-14.9-74.2-24.4c-9.1-6.9-13.4-22.2-13.9-49.5c-0.3-17.5,1.1-33.3,1.2-34l0.9-10.1l10.2,0.2
		c1.7,0,168.5,3,335.1,34.3C-82-119.6-2.7-95,55.2-64.9C130-26.1,170,22.3,174.1,78.9c5,45.4-9.8,89.1-43.8,130
		c-26.9,32.2-65.9,62.8-116,90.8c-80.2,45-166.5,70.8-191,77.6c-1.3,0.4-129.7,35.7-279.9,35.7H-457.6z"/>
	<path class="st1" d="M-515.7-161.4c0,0,662.5,10.6,678.8,241.3C183.7,265-154.5,359.7-179.7,366.7c-25.1,7-144.5,35.3-277,35.3
		c-0.3,0-0.6,0-0.9,0c-4,0-0.5-22.6,30.2-35c30.7-12.4,387.3-96.1,427.4-226.2C35.3,26.7-271.3-35.3-282-38.2l-158.5,367.4
		c0,0-21.7,27-42.5,27c-0.8,0-1.7,0-2.5-0.1c-21.6-2.3-24.7-32-24.7-32l83.5-387c0,0-66.3-13.9-80.6-24.8
		C-521.6-98.6-515.7-161.4-515.7-161.4 M-535.7-183.8l-1.9,20.3c-0.1,0.7-1.6,17.1-1.2,35.2c0.6,31.4,6,48.7,18.2,58
		c5.8,4.4,17.1,10.7,53.4,20.3c5.1,1.3,10,2.6,14.4,3.6l-78.9,365.7l-0.7,3.4l0.4,3.5c0.2,1.8,1.4,11.5,6.1,21.9
		c7.8,17.3,21.4,27.9,38.1,29.7c1.6,0.2,3.2,0.3,4.8,0.3c3,0,6-0.3,9-0.9c-5.7,9.4-8,19.1-6.4,27.4c2.2,11.4,11.6,19.3,22.8,19.3
		l0.9,0c57.6,0,118.9-5.1,182.2-15.3c59.7-9.6,96.7-19.7,100.7-20.8c24.8-6.9,112.1-33.1,193.4-78.6c51.3-28.7,91.3-60.1,119.1-93.4
		c36-43.2,51.6-89.6,46.4-138C180.5,17.3,138.6-34,60.3-74.7c-58.9-30.6-139.2-55.6-238.6-74.2c-87.6-16.5-174.5-25-232-29.2
		c-62.3-4.6-103.3-5.3-105-5.3L-535.7-183.8L-535.7-183.8z M-422.9,342.4l1.4-1.8l1.2-2.7L-269-12.6C-139.8,18.1-49.1,60.7-25.2,102
		c6.3,11,7.7,21.2,4.2,32.4c-8.7,28.3-44,73-162.4,125.7c-81.2,36.1-170.1,62-217.8,75.9C-410.5,338.7-417.5,340.7-422.9,342.4
		L-422.9,342.4z"/>
</g>
<g class="st0">
	<path class="st3" d="M284.1,417.7c-1.8,0-4-0.2-6.3-1.3l-0.2-0.1c-4.2-2.2-7.2-4.3-9.4-6.7l-1.8-1.9l-5.1-17.7l82.6-437.7
		c-29.5,2-99,6.4-155.1,6.4c-24.7,0-44.4-0.8-58.6-2.5c-18.8-2.2-32-5.9-35.2-16.8c-6.5-22.4,6.7-70.9,21.8-92.1
		c6.4-9,13.5-13.8,21-14.2c7.4-0.4,265.2-3.4,404.5-3.4c29.4,0,52.3,0.1,68.1,0.4c8.7,0.1,15.4,0.3,20,0.5c5.4,0.3,9.2,0.4,12.2,2.1
		c6.3,2.9,13.6,9.9,15.2,26.3c1.3,12.7-1.3,26.1-2.9,32.9c-4.6,19.5-9.9,22.9-11.9,24.2c-2.8,1.8-2.9,1.9-32.8,5.1
		c-14.5,1.6-34.5,3.6-59.5,6.1c-12.8,1.3-25.6,2.6-37.2,3.7c2.3,4.1,3,8.9,1.8,13.6c-13.9,54.9-56.8,187.8-81.1,262.2
		c-15.1,46.2-31.2,94.8-44.3,133.3c-20.2,59.8-20.7,60.3-23,62.6l-0.1,0.1c-2.6,2.6-4.5,4.4-40.6,9.9
		C313.9,414.6,291.4,417.7,284.1,417.7z"/>
	<path class="st1" d="M542.1-159.4c55.4,0,94.1,0.5,95.2,1.7c18.7,7.6,5.8,60.4-0.4,64.5c-2.1,1.4-173.1,18-173.1,18
		s44.8,1.1,40.7,17.1C480.3,37.7,361.5,392.5,359,395c-2.7,2.7-64.4,11.7-75,11.7c-0.7,0-1.2,0-1.4-0.1c-2.9-1.5-5.1-3-6.5-4.5
		l-3.7-12.6l84.8-449.1c0,0-95.2,7.4-168.6,7.4c-44.3,0-80.7-2.7-83.2-11.4c-6.7-23.1,14.1-91.3,32.8-92.3
		C144.4-156.3,399-159.4,542.1-159.4 M542.1-181.4c-139.5,0-397.7,3.1-405.1,3.5c-11,0.6-20.9,6.9-29.3,18.8
		c-8.3,11.7-15.8,29.7-20.7,49.5c-3.7,15.1-7.2,36.4-2.6,52c2.8,9.5,10.2,16.3,22,20.2c5.8,1.9,13.1,3.4,22.4,4.5
		c14.6,1.7,34.7,2.6,59.9,2.6c49.4,0,107.7-3.2,141.7-5.5l-79.5,421.1l-1,5.2l1.5,5l3.7,12.6l1.5,5.1l3.7,3.9c3,3.2,6.9,6,12.2,8.8
		l0.2,0.1l0.2,0.1c4.4,2.2,8.5,2.5,11.3,2.5c9.6,0,38.1-4.3,43.7-5.1c6.6-1,16-2.5,24-4.1c11.5-2.2,17.5-3.8,22.6-8.9l0.1-0.1
		l0.1-0.1c3.9-4,4.8-6.3,11.1-24.5c3.6-10.3,8.6-24.9,14.5-42.3c13-38.5,29.2-87.2,44.3-133.4c24.4-74.5,67.4-207.8,81.3-262.9
		c0.6-2.2,0.9-4.4,0.9-6.6c8.1-0.8,16.6-1.6,25-2.5c25-2.5,45.1-4.6,59.6-6.1c8.7-0.9,15.5-1.7,20.2-2.3c9.1-1.1,12.8-1.5,17.5-4.6
		c5.1-3.3,11.5-9.8,16.5-30.9c1.8-7.5,4.6-22.2,3.1-36.5c-2.2-22.2-13.6-31.4-21.3-35.1c-5.2-2.7-11-2.9-16.6-3.2
		c-4.8-0.2-11.5-0.4-20.4-0.6C594.5-181.3,571.5-181.4,542.1-181.4L542.1-181.4z"/>
</g>
<g class="st0">
	<path class="st3" d="M653,416.1c-41.3,0-70.6-5.7-87.1-16.9c-11.8-8.1-19.4-22.8-22.5-43.9c-9.6-65.3,24.1-181.7,45.1-245.3
		c28.9-87.6,65-171.5,84.2-195.1c44.3-54.6,83-83.4,125.8-93.1c15-3.4,37.1-7.5,56.8-7.5c37.8,0,48.1,15.4,50,28.3
		c0.9,5.9-0.4,14.4-25.6,63.8C863.8-62.9,842.1-22.6,819,20.1c-30.5,56.5-65.1,120.5-90.7,172c-36.3,73-40.2,92.5-40.2,97.5
		c1.9,1.2,9.2,4.4,33.2,4.4c59,0,168.3-19.7,233.6-31.5c37.2-6.7,55.4-9.9,61.9-9.9c1.3,0,5.2,0,8.6,2.9c8.9,7.6,20.4,34.2-0.8,67.8
		c-4.1,6.5-14.1,17-52.9,32.2c-25.2,9.9-58.1,19.9-95.2,29C796.1,404.3,712.5,416.1,653,416.1z"/>
	<path class="st1" d="M855.2-174.8c21.1,0,37,5,39.1,19C898-131.2,667.4,252.7,677.5,293c2.2,8.7,18.9,12,43.9,12
		c87.7,0,277-41.5,295.5-41.5c0.8,0,1.2,0.1,1.4,0.2c5.5,4.7,14.6,25.8-2.9,53.6C994.3,350.8,780,405.1,653,405.1
		c-36.2,0-65.4-4.4-80.9-15c-69.9-47.7,69.2-419,109.1-468.3c40-49.3,77-79.6,119.7-89.3C819.4-171.8,838.9-174.8,855.2-174.8
		 M855.2-196.8c-20.7,0-43.7,4.3-59.3,7.8c-45.3,10.4-85.9,40.3-131.8,96.9c-12.5,15.4-28.5,49.6-39.7,75.5
		c-15.8,36.6-32.3,80.3-46.4,123.2c-21.2,64.5-55.4,182.8-45.5,250.4c3.5,24.2,12.7,41.5,27.2,51.4c18.6,12.7,49.1,18.8,93.3,18.8
		c60.4,0,144.9-12,226.2-32c37.5-9.2,70.9-19.4,96.6-29.5c41.4-16.2,52.9-28,58.2-36.6c12.8-20.2,14.3-37.8,13.4-49
		c-1.1-13.7-6.7-26-14.8-33c-4.3-3.7-9.6-5.5-15.7-5.5c-7.2,0-21.5,2.5-63.8,10.1c-65,11.7-173.7,31.4-231.7,31.4
		c-9.7,0-16.1-0.6-20.4-1.2c1.5-5,4.1-12.7,9-24.3c7-16.8,17-38.2,30.6-65.3c25.2-50.4,58.6-112.3,88.1-166.9
		c23.1-42.8,44.9-83.2,60.7-114c8.6-16.8,14.8-29.6,19-39.3c6.9-15.8,8.8-23.6,7.7-31.1c-2.1-14.2-11.1-25.4-25.4-31.6
		C881.3-194.9,869.7-196.8,855.2-196.8L855.2-196.8z"/>
</g>
<g class="st0">
	<path class="st3" d="M1695.5,413.9c-22.7,0-53.7-4.7-92.1-14c-92.4-22.3-357.7-122.4-412-143l-60.2,120.9l-5,1.2
		c-0.6,0.1-6.4,1.5-15.2,1.5c-10.6,0-21.1-1.8-31.1-5.5c-22.6-8.3-38.4-25.5-38.4-35.9c0-2,0-4.4,35.2-125.9
		c-22.8-14.4-36-23.2-39.3-26.3l0,0c-13.6-12.7-13.9-30.3-13.9-32.3v-5l3.7-3.3c6.1-5.4,23.6-11.8,60.6-24c4.6-1.5,9.6-3.2,13.4-4.5
		c1-74.1,2.8-203.1,2.8-206.1c0-30.8,18.4-52.4,56.3-65.8l0.4-0.1l0.4-0.1c68.9-19.4,158.3-30.5,245.4-30.5
		c65,0,158.3,6.2,233.2,35.7c34,13.4,60.6,30.3,79,50.4c20.7,22.6,31.2,49,31.2,78.6c0,42.9-26.6,80.7-79,112.5
		c-40.1,24.3-95.7,45.2-165.3,62.2c-77.7,19-156.1,28.9-200.7,33.4c22.1,10,59.9,26.2,124.6,52.3c80.6,32.4,175,69,237.5,93.2
		c20.9,8.1,39,15.1,51.5,20c21.8,8.5,21.8,8.5,23.8,10.6l1,1l0.7,1.2c0.9,1.6,8.6,15.6,0.7,29.2
		C1737.4,407.9,1721.3,413.9,1695.5,413.9z M1227.3-67.8c70.2,16.8,79.3,25.9,82.3,34.3c2,5.7,1.3,13.8-8.6,36.2
		c-5.5,12.4-13.5,28.6-23.8,47.9c-8.6,16.2-17.4,32-24.2,43.9c32.7-6.3,96.8-19.5,162-36.3c50.7-13.1,91.3-25.5,120.7-37.1
		c47.2-18.5,50.7-29,50.9-29.8c-2.7-16.2-30.8-33.4-77.3-47.2c-46.1-13.6-97.2-20.4-127-22c-12-0.7-24.2-1-36.2-1
		C1296.3-78.9,1255.2-73.3,1227.3-67.8z"/>
	<path class="st1" d="M1406.2-173.7c167.9,0,332.4,41.8,332.4,153.7c0,170.1-471.8,200.3-471.8,200.3
		c20.3,21.3,465,189.1,467.5,191.6c0,0,18,31-38.8,31c-19.6,0-48.2-3.7-89.5-13.7C1504.5,364.8,1186,243,1186,243l-62.4,125.2
		c0,0-4.9,1.2-12.6,1.2c-7.2,0-16.8-1-27.3-4.8c-21.8-8-31.2-22.6-31.2-25.5c0-2.9,37-130.8,37-130.8s-41.1-25.7-44.7-29.4
		c-10.5-9.9-10.5-24.3-10.5-24.3c8.2-7.2,72.3-26.2,77.6-29.1c0,0,2.9-210.7,2.9-213.7c0-21.5,9.8-41.6,49-55.5
		C1230.4-162.4,1318.8-173.7,1406.2-173.7 M1231.7,109.5c6.3,0,373.6-70,365.8-119.8c-7.6-48.5-147.7-74.9-214.6-78.6
		c-12.7-0.7-25-1-36.8-1c-97.9,0-164.5,21.3-164.5,23c0,0.5,112.3,22,117.6,37C1304.5-14.9,1231.7,109.5,1231.7,109.5 M1406.2-195.7
		c-88,0-178.5,11.3-248.4,30.9l-0.7,0.2l-0.7,0.2c-22.5,8-38.6,18.5-49.1,32.1c-9.6,12.3-14.4,27.1-14.4,44.1
		c0,3.9-1.7,123.6-2.7,198.2c-2,0.7-4,1.3-6,2c-41,13.6-56.9,19.6-64.4,26.2l-7.4,6.6v9.9c0,2.4,0.5,24.2,17.1,40
		c1.7,1.7,6,5.4,34.3,23.4c-3.6,12.4-8.8,30.4-13.9,48.5c-19.4,67.6-19.4,68.5-19.4,72.5c0,5.8,2.4,15.1,13.9,26.5
		c5.9,5.9,16.2,14.1,31.7,19.7c11.2,4.1,22.9,6.2,34.8,6.2c9.8,0,16.5-1.5,17.7-1.8l10-2.4l4.6-9.2l53.5-107.4
		c70.3,26.6,315.4,118.6,404,139.9c39.3,9.5,71.2,14.3,94.7,14.3c14.4,0,26-1.7,35.5-5.3c10.5-4,18.3-10.2,23.1-18.6
		c8.3-14.4,4.8-30.7-0.8-40.2l-1.4-2.5l-2-2c-3.4-3.4-6.3-4.6-12.8-7.2c-3.3-1.3-8.2-3.3-14.8-5.9c-12.5-4.9-30.6-11.9-51.6-20
		c-61.4-23.8-154.1-59.7-233.8-91.8c-36-14.5-66.2-26.9-90.2-37.1c44.4-5.6,102.6-14.7,161.3-29.1c70.7-17.3,127.3-38.6,168.4-63.4
		c25.6-15.5,45.7-32.7,59.6-51.2c16.4-21.7,24.7-45.5,24.7-70.7c0-42.5-20.3-101.1-117.2-139.3
		C1566.9-189.4,1472.2-195.7,1406.2-195.7L1406.2-195.7z M1280.6-64.6c19.4-2,41.5-3.3,65.6-3.3c11.8,0,23.8,0.3,35.6,1
		c29.2,1.6,79.2,8.2,124.4,21.6c44.3,13.1,62.6,26.8,67.9,34.6c-5,4.2-18.8,13.2-54.4,26.1c-29.8,10.8-69.2,22.5-117,34.6
		c-47.5,12-95.1,22.3-128.4,29.1c4.1-7.4,8.4-15.3,12.7-23.4c10.4-19.6,18.6-36,24.2-48.7c10.2-23.1,12.5-34.3,9-44.3
		c-4.2-12.1-15.9-18.3-27.9-23.2C1288.6-61.7,1284.8-63.1,1280.6-64.6L1280.6-64.6z"/>
</g>
<path class="st4" d="M17,288.2c-11.7-1.3-13.4-17.4-13.4-17.4L48.9,60.7c0,0-36-7.5-43.7-13.4s-4.6-40-4.6-40s359.6,5.8,368.5,131
	C380.3,238.8,196.7,290.2,183,294c-13.7,3.8-78.8,19.2-150.9,19.2c-2.2,0-0.3-12.3,16.4-19c16.7-6.7,210.2-52.2,232-122.8
	c19.1-61.9-147.3-95.6-153.1-97.2L41.5,273.6C41.5,273.6,28.7,289.4,17,288.2z"/>
<path class="st4" d="M474.5,62.5c0,0-133.1,10.4-136.7-2.2c-3.6-12.5,7.7-49.6,17.8-50.1c4.7-0.3,268.8-3.4,270.9-0.9
	c10.2,4.1,3.2,32.8-0.2,35c-1.1,0.7-94,9.8-94,9.8s24.3,0.6,22.1,9.3c-13.2,52-77.6,244.6-79,246c-1.6,1.6-39.9,7.1-41.5,6.3
	c-1.6-0.8-2.8-1.6-3.5-2.4l-2-6.9L474.5,62.5z"/>
<path class="st4" d="M831.8,267.2c-14.7,23.3-202.7,65.4-240.7,39.5c-38-25.9,37.5-227.5,59.2-254.2s41.8-43.2,65-48.5
	s48.7-7.1,50.8,6.4c2,13.4-123.2,221.8-117.7,243.7c5.4,21.9,182.1-18.4,185-15.9C836.4,240.7,841.3,252.1,831.8,267.2z"/>
<path class="st4" d="M890.5,294.8c0,0-9.8,2.3-21.7-2s-16.9-12.3-16.9-13.9c0-1.6,20.1-71,20.1-71s-22.3-14-24.3-16
	c-5.7-5.3-5.7-13.2-5.7-13.2c4.4-3.9,39.2-14.2,42.1-15.8c0,0,1.6-114.4,1.6-116c0-11.7,5.3-22.6,26.6-30.1
	c105.6-29.7,312-25.2,312,67.1S968.3,192.8,968.3,192.8c11,11.6,252.4,102.7,253.8,104c0,0,17.7,30.5-69.7,9.4
	c-55.1-13.3-228-79.4-228-79.4L890.5,294.8z M949.2,154.4c3.4,0,202.8-38,198.6-65c-4.1-26.4-80.2-40.7-116.5-42.7
	C967.5,43.2,922,57.6,922,58.6c0,0.3,61,12,63.8,20.1C988.7,86.8,949.2,154.4,949.2,154.4z"/>
<path class="st4" d="M661.4,260.2"/>
<g>
	<path class="st4" d="M1190.6,273c-3.6-1.9-6.3-4.7-8.2-8.4c-1.9-3.7-2.8-8.1-2.8-13.2c0-5.2,0.9-9.6,2.8-13.2
		c1.9-3.7,4.6-6.5,8.2-8.4c3.6-1.9,7.9-2.9,13-2.9s9.4,1,13,2.9c3.6,1.9,6.3,4.7,8.2,8.4c1.9,3.7,2.8,8.1,2.8,13.2
		c0,5.2-0.9,9.6-2.8,13.2c-1.9,3.7-4.6,6.5-8.2,8.4c-3.6,1.9-7.9,2.9-13,2.9C1198.6,275.9,1194.2,274.9,1190.6,273z M1213,267.2
		c2.6-1.4,4.6-3.5,6-6.2c1.4-2.7,2.1-5.9,2.1-9.7c0-3.9-0.7-7.2-2.1-9.9c-1.4-2.8-3.4-4.8-6-6.3c-2.6-1.4-5.8-2.2-9.4-2.2
		c-3.7,0-6.8,0.7-9.4,2.2c-2.6,1.4-4.6,3.5-6,6.3c-1.4,2.8-2.1,6.1-2.1,9.9c0,3.8,0.7,7,2.1,9.7c1.4,2.7,3.4,4.8,6,6.2
		c2.6,1.4,5.8,2.1,9.4,2.1C1207.3,269.3,1210.4,268.6,1213,267.2z M1194.1,238.9h6v24.7h-6V238.9z M1197.8,250.8h7.5
		c0.9,0,1.6-0.3,2.1-0.9c0.5-0.6,0.8-1.4,0.8-2.4c0-1.1-0.3-1.9-0.8-2.5c-0.5-0.6-1.2-0.8-2.1-0.8h-7.5v-5.4h7.3
		c2.9,0,5.2,0.8,6.7,2.4c1.6,1.6,2.3,3.7,2.3,6.3c0,2.6-0.8,4.7-2.4,6.3s-3.8,2.4-6.7,2.4h-7.3V250.8z M1203.5,253.9l5-2.6l6.3,12.3
		h-6.7L1203.5,253.9z"/>
</g>
</svg>
